# xmcd
#
# Track frame offsets:
#	182
#	15690
#	31622
#	51432
#	66530
#	80190
#	89582
#	103187
#	116210
#	134315
#	146952
#	158275
#	169562
#	182012
#	190552
#	203530
#	222877
#	235800
#	257170
#	270630
#	307300
#
# Disc length: 4344 seconds
#
# Revision: 4
# Processed by: cddbd v1.5.2PL0 Copyright (c) Steve Scherf et al.
# Submitted via: audiograbber 1.83.01
#
DISCID=3310f615
DTITLE=Stephen Stills - Manassas
DYEAR=1972
DGENRE=Rock
TTITLE0=Song Of Love
TTITLE1=Rock And Roll Crazies/Cuban Bluegrass
TTITLE2=Jet Set (Sigh)
TTITLE3=Anyway
TTITLE4=Both Of Us (Bound To Lose)
TTITLE5=Fallen Eagle
TTITLE6=Jesus Gave Love Away For Free
TTITLE7=Colorado
TTITLE8=So Begins The Task
TTITLE9=Hide It So Deep
TTITLE10=Don't Look At My Shadow
TTITLE11=It Doesn't Matter
TTITLE12=Johnny's Garden
TTITLE13=Bound To Fall
TTITLE14=How Far
TTITLE15=Move Around
TTITLE16=The Love Gangster
TTITLE17=What To Do
TTITLE18=Right Now
TTITLE19=The Treasure (Take One)
TTITLE20=Blues Man
EXTD=YEAR: 1972
EXTT0=
EXTT1=
EXTT2=
EXTT3=
EXTT4=
EXTT5=
EXTT6=
EXTT7=
EXTT8=
EXTT9=
EXTT10=
EXTT11=
EXTT12=
EXTT13=
EXTT14=
EXTT15=
EXTT16=
EXTT17=
EXTT18=
EXTT19=
EXTT20=
PLAYORDER=
